<svg xmlns="http://www.w3.org/2000/svg" xmlns:xlink="http://www.w3.org/1999/xlink" viewBox="0 0 739.1 242.95"><defs><symbol id="a" viewBox="0 0 71.35 43.11"><path fill="#fff" fill-rule="evenodd" d="M36.9 5.15v31.57c5.46-4 15.78-6.53 24.34-3.4V1.47C53-1.63 41.7.47 36.9 5.17zm-26.7-3.6V33.4c8.54-3.13 18.86-.63 24.34 3.4V5.23C29.72.55 18.4-1.55 10.2 1.53z"/><path fill="#fff" fill-rule="evenodd" d="M65.7 26.57v-10.4c1.4.1 5.18.86 5.65-.9-.9-2.05-3-2-5.64-2.2V4.3h-2.1v32c-11.7-2.5-20.6-1.22-27.8 4-7.1-5.26-16-6.55-27.8-4v-32H5.7v8.78c-.44 0-1.04.07-1.8.14 0-1.06-.06-.8-3.42-.45-.68 0-.42.95-.42 4.2a.45.45 0 0 0 .5.43c3.34-.33 3.34-.06 3.34-1.1l1.8-.13v10.4c-.44 0-1.04.07-1.8.14 0-1 0-.8-3.42-.4-.7 0-.42 1-.42 4.2a.46.46 0 0 0 .5.5c3.3-.3 3.34 0 3.34-1.1l1.8-.1V39c11.4-2.65 20.9-3.14 30 4.06 9.15-7.2 18.6-6.72 30-4.06v-9.33c1.6.1 5.2.84 5.65-.9-.9-2.07-3.1-2.05-5.64-2.2z"/></symbol></defs><path fill="#fff" d="M210.44 186.93c-54.25 78.88-160.55 70.28-207.26.4l19.07-17.63c38.72 63.45 130.77 63.56 169.56 0zM7.87 178.7c14-12.93 11.34-10.46 14.9-13.82a107 107 0 0 0 10.36 14.9l4.13-3.78a86.1 86.1 0 0 1-16.7-32l-6.62 17L0 163c.1.23 7.75 15.46 7.87 15.7zM214 163l-14-2-6.6-17a86.1 86.1 0 0 1-16.72 32l4.12 3.75a107 107 0 0 0 10.35-14.9c3.57 3.35.92.88 14.9 13.8.15-.2 7.82-15.42 7.95-15.65zM270.08 6.3c0 6.24.26 6.47-.77 6.37-2.8-.3-2.8.42-2.8-2h-7.3v29.2c1.4.1 2-.14 2 .86-.4 3.65 1.7 2.78-8.7 2.78-.4 0-.5-.2-.5-.7.3-3.2-.4-2.7 2-2.9V10.7h-7c-.1 1.36.2 2-.8 1.93-2.1-.24-2.8.06-2.8-.53V6.3zm36.17 34.43c-.24 2.14.06 2.78-.53 2.78-8.82 0-8.83.3-8.73-.7.3-3.2-.5-2.7 1.9-2.9V27h-16.7v12.9c1.3.1 2-.14 1.9.86-.3 2.13 0 2.78-.6 2.78-8.9 0-8.9.28-8.8-.77.3-3.2-.4-2.72 1.9-2.88v-30c-1.4-.1-2 .1-2-.9.2-2.2-.1-2.8.5-2.8 8.8 0 8.8-.3 8.7.7-.3 3.2.4 2.7-1.9 2.9v12.6h16.7V9.9c-1.4-.1-2 .15-2-.85.2-2.18-.1-2.8.5-2.8 8.8 0 8.8-.3 8.7.75-.4 3.2.4 2.72-2 2.88v29.95c1.3.13 2-.14 1.9.86zm30.12-3.45c.63 0 .38.5.38 6.23-25.25 0-23.9.4-23.8-.7.33-3.2-.4-2.7 1.93-2.9V10c-1.35-.1-2 .14-1.92-.86.24-2.14-.07-2.8.53-2.8h22.4c0 6.26.2 6.48-.8 6.38-3.2-.32-2.7.4-2.9-1.92h-11.9v11.3h13.5v4.4h-13.5v12.55H333c.1-1.34-.14-2 .86-1.92zM392.2 7.06c-.3 2.92.45 2.88-2.06 2.88V29.8c0 9.7-3.8 14.3-13.48 14.3-16 0-13.3-9.83-13.3-34.16-1.34-.1-2 .14-1.9-.86.23-2.14-.08-2.78.52-2.78 8.8 0 8.84-.28 8.73.77-.3 3.18.5 2.72-1.9 2.88v20.8c0 5.96 1.8 9.17 7.8 9.17 6.8 0 8.3-4.12 8.3-9.16V9.94c-1.3-.1-2 .14-1.9-.86.3-2.14 0-2.78.6-2.78 8.8 0 8.9-.3 8.8.76zm40.2 0c-.3 3 .5 2.88-2.35 2.88v33.58h-3.6a.6.6 0 0 1-.53-.3L406.3 15.8v24.07a18.13 18.13 0 0 1 1.92.1c.33 0 .48.34.43.77-.4 3.62 1.75 2.78-8.73 2.78-.38 0-.58-.3-.53-.77.3-3.2-.5-2.72 1.9-2.88V9.94c-1.4-.1-2 .14-1.9-.86.4-3.57-1.3-2.78 5.8-2.78a.67.67 0 0 1 .6.34L425 33.5V9.94c-1.35-.1-2 .14-1.92-.86.24-2.2-.04-2.78.54-2.78 8.82 0 8.84-.3 8.73.76zm16.93 33.67c-.24 2.15.06 2.78-.53 2.78-8.8 0-8.83.3-8.73-.7.3-3.2-.4-2.7 1.92-2.9V10c-1.4-.1-2 .14-2-.86.2-2.2 0-2.8.5-2.8 8.8 0 8.8-.3 8.7.77-.4 3.2.4 2.7-2 2.9v29.9c1.3.2 2-.1 1.9.9zm39.1-33.67c-.32 3.2.4 2.72-1.93 2.88-12.92 35.2-11.84 33.58-13.43 33.58l-4-.14c-.35 0-12.63-33.1-12.76-33.43-1.3-.1-2 .14-1.9-.86.3-2.2 0-2.8.5-2.8 9 0 9-.3 8.9.7-.3 3.2.4 2.7-1.9 2.9l9.6 27h.2l9.6-27.1c-1.3-.1-2 .1-1.9-.9.3-2.2 0-2.8.6-2.8 8.7 0 8.7-.3 8.6.7zm28.43 30.22c.63 0 .4.5.4 6.23-25.3 0-23.9.4-23.8-.7.32-3.2-.4-2.7 1.92-2.9V10c-1.35-.1-2 .14-1.92-.86.24-2.13-.06-2.8.53-2.8h22.4c0 6.26.2 6.48-.8 6.38-3.2-.32-2.7.4-2.9-1.92h-11.9v11.3h13.5v4.4h-13.5v12.55h12.7c.1-1.35-.2-2 .8-1.92zm34.35 3.45c-.2 2.2.1 2.78-.5 2.78h-5.4l-8.1-14.3h-5.3v10.7c1.4.1 2-.1 2 .9-.2 2.2.1 2.8-.5 2.8-8.8 0-8.8.3-8.7-.7.4-3.2-.4-2.7 2-2.9V10c-1.4-.1-2 .13-1.9-.87.3-2.14 0-2.8.6-2.8 12.7 0 24.6-1.65 24.6 11.1a11 11 0 0 1-7.1 10.7l6.8 11.78c1.3.2 2-.1 1.9.9zm-7.1-23.3c0-7.72-6.5-6.92-12.3-6.92v14.4c5.1 0 12.4.9 12.4-7.4zm36.5 15.87c0 11-13.8 12.52-23.5 8.4 0-6.22-.3-6.54.9-6.44 4 .33 3.4-.56 3.5 3.2 6 1.42 13.8 1.48 13.8-4.64 0-4.27-1.6-5.13-9-7.77-5.3-2-9-4.75-9-10.07 0-9.93 11.6-11.42 21.2-9v6.28c0 1-1.5.58-3.8.43-.7 0-.5-1-.5-3a35.2 35.2 0 0 0-3.8-.3c-4.4 0-7.3 2-7.3 5.3 0 8.5 17.8 4.7 17.8 17.5zm16 7.43c-.2 2.14.1 2.78-.5 2.78-8.8 0-8.8.3-8.7-.7.3-3.2-.4-2.7 2-2.9V10c-1.3-.1-2 .14-1.9-.86.3-2.17 0-2.8.6-2.8 8.8 0 8.9-.3 8.8.77-.3 3.2.4 2.7-1.9 2.9v29.9c1.4.2 2-.1 1.9.9zM629.1 6.3c0 6.24.25 6.45-.78 6.35-2.9-.3-2.9.42-2.9-2h-7.28v29.2c1.34.1 2-.14 1.92.86-.4 3.6 1.75 2.8-8.73 2.8-.37 0-.56-.3-.5-.7.3-3.2-.4-2.7 1.9-2.9V10.7h-6.75c-.1 1.36.14 2-.86 1.93-2.13-.24-2.8.06-2.8-.53V6.3zm32.85.74c-.3 3.2.4 2.72-1.92 2.88L649.56 30.4v9.46c1.35.1 2-.14 1.92.86-.24 2.15.07 2.78-.53 2.78-8.8 0-8.84.3-8.73-.76.33-3.2-.4-2.72 1.93-2.88v-9.54l-10.3-20.38c-1.32-.1-2 .13-1.88-.86.24-2.13-.06-2.78.53-2.78 8.8 0 8.83-.3 8.73.77-.3 3.18.4 2.72-1.86 2.88l7.48 15.44h.2l7.72-15.5c-1.35-.1-2 .1-1.92-.9.24-2.2-.07-2.8.53-2.8 8.67 0 8.67-.3 8.6.7zm48 17.9c0 12.7-5.6 18.84-15 18.84s-15-6.34-15-18.86c0-9 3.4-18.9 15.1-18.9 10.03 0 14.92 7.68 14.92 18.95zm-24.32-.1c0 6.28 1.45 14.44 9.3 14.44 6.53 0 9.36-5.57 9.36-14.45 0-6.43-1.6-14.34-9.3-14.34s-9.4 8.1-9.4 14.3zm53-18.56c0 6.25.27 6.47-.76 6.37-3.2-.32-2.72.4-2.88-1.92h-12V22.1h13v4.4h-13v13.36c1.3.1 2-.14 1.9.86-.3 2.13 0 2.78-.6 2.78-8.9 0-8.9.3-8.8-.76.3-3.2-.4-2.72 1.9-2.88V9.94c-1.4-.1-2 .14-2-.86.2-2.18-.1-2.78.5-2.78zM345 60.82c.85 0 1.27.64 1.17 1.7-.7 7 .93 6-4.14 6.36l-17.92 70.5a4.88 4.88 0 0 1-4.8 3.7l-8.2-.3c-2.1 0-.7 3.32-16.3-63.95h-.1l-14.2 59.28c-.5 2.2-1.9 5.1-5.6 5l-8-.3c-2 0-.5 3.8-19.3-73.9l-3.1-.2c-.7 0-1-.7-1-1.7.5-4.6-.2-6.1 1.2-6.1H262c.85 0 1.27.7 1.17 1.7-.7 7 .93 6-4.14 6.4l13.57 61.9h.1l15.17-65c.85-3.7 2.65-5 5.2-4.9 7 .3 7.3 0 7.85 2.4L316.3 131h.1l14.2-62-3.2-.24c-.8 0-1.1-.7-1-1.7.5-4.7-.2-6.12 1.1-6.12zm59.6 69.35v12.94h-51.4c-.86 0-1.28-.6-1.18-1.7.7-7-1-6 4.24-6.3V68.9l-3.26-.22c-.74 0-1.06-.74-1-1.7.52-4.7-.18-6.15 1.17-6.15h49.63v12.94c0 .85-.64 1.27-1.7 1.17-7-.7-6 1-6.36-4.24h-26.4v25.13h29.9v9.76h-29.9v27.6h28.2l.22-3.3c0-.8.74-1.1 1.7-1 5.7.4 6.15.1 6.15 1.2zm60-9.65c0 24.33-30.52 27.74-52.07 18.56v-12.85c0-1 .74-1.5 2-1.38 6.5.54 7.23.05 7.42 1.38l.2 5.73c13.32 3.1 30.55 3.25 30.55-10.3 0-9.44-3.6-11.35-19.93-17.18-11.88-4.45-20-10.5-20-22.27 0-21.9 25.43-25.2 46.76-19.9v13.9c0 2-2.08 1.4-8.37 1-1.34 0-1.06-.9-1.27-6.7a77.13 77.13 0 0 0-8.4-.5c-9.9 0-16.4 4.6-16.4 11.9 0 19 39.4 10.4 39.4 38.7zm63.4-59.7v12.94c0 .85-.64 1.27-1.7 1.17-4.93-.5-5.93.16-6.15-1.17 0-.17-.2-3-.2-3.18h-16.1v64.45c5.08.33 4.42-.94 3.93 7.2 0 1.2.44.86-19 .86-1.64 0-1.17-1.6-.85-7 0-1 1.16-.9 3.92-1.1V70.6h-15c-.33 5.06.94 4.4-7.2 3.9-1.17 0-.86.17-.86-13.67zm60.33 69.35v12.94h-51.4c-.84 0-1.26-.6-1.16-1.7.7-7-1-6 4.24-6.3V68.9l-3.2-.22c-.7 0-1-.74-1-1.7.5-4.65-.2-6.15 1.2-6.15h49.7v12.94c0 .85-.6 1.27-1.7 1.17-7-.7-6 1-6.3-4.24h-26.4v25.13H582v9.76h-29.9v27.6h28.2l.22-3.3c0-.8.74-1.1 1.7-1 5.7.4 6.15.1 6.15 1.2zm68.18 5.1c.8 0 1.1.73 1 1.7-.5 4.68.2 6.14-1.1 6.14h-12.1l-18-31.8h-11.7v23.8l3.3.2c.8 0 1.1.8 1 1.7-.5 4.7.2 6.2-1.2 6.2h-18.2c-.8 0-1.2-.6-1.1-1.7.7-7-1-6 4.3-6.3V68.9l-3.3-.22c-.7 0-1-.74-1-1.7.6-4.62-.2-6.15 1.2-6.15h24c20.7 0 30.5 7.85 30.5 24.6 0 10.7-5.6 19.83-15.7 23.65l15.1 26zm-14.7-49.85c0-17.05-14.4-15.27-27.2-15.27v31.7c11.1 0 27.3 2.02 27.3-16.43zm96.1-24.6c.9 0 1.3.64 1.2 1.7-.5 4.94.2 5.93-1.1 6.15a35.3 35.3 0 0 1-4 .2v74.24h-8c-1 0 2 3.8-44.5-61.3v53.3a40.08 40.08 0 0 1 4.3.2c.7 0 1.1.8 1 1.7-.5 4.7.2 6.2-1.2 6.2h-18.2c-.8 0-1.2-.6-1.1-1.7.7-7-1-6 4.3-6.3V68.9l-3.3-.22c-.7 0-1-.74-1-1.7.6-4.65-.2-6.15 1.2-6.15 13.2 0 12.3-.26 13 .74L722.8 121V68.9l-3.3-.22c-.73 0-1.05-.74-1-1.7.52-4.7-.17-6.15 1.18-6.15zM307 225.1c-.42 3.73.12 5.25-.9 5.25h-15.9c-.73 0-1.1-.54-1-1.45.6-6-.8-5.13 3.54-5.44l-3.54-10.07h-28.77l-3.36 10c2.87.2 3.82-.1 3.62 1.6-.5 4 .1 5.2-1 5.2h-15.3c-.8 0-1.1-.6-1-1.5.6-6-.9-5.2 3.5-5.5l20.3-56.6c-2.8-.2-3.8.1-3.6-1.7.4-4-.2-5.3 1-5.3H279l24.32 63.5c2.8.1 3.73-.2 3.53 1.6zM286.3 205l-11.8-33.48h-.08L263.27 205zm77.4-45.1c.73 0 1.1.54 1 1.45-.4 4.24.15 5.07-1 5.26-.4 0-2.47.2-2.9.2v37.6c0 18.4-7.17 27-25.5 27-17.5 0-25.13-5.9-25.13-27v-37.5c-2.9-.2-3.82.2-3.63-1.6.44-4-.16-5.2 1-5.2h15.52c.73 0 1.1.6 1 1.5-.6 6 .82 5.2-3.63 5.5v39.4c0 11.3 3.36 17.4 14.8 17.4 12.7 0 15.6-7.8 15.6-17.3V167c-4.33-.3-3.78.8-3.36-6.17a.67.67 0 0 1 .73-.74zm51.46 51.1c0 20.9-26.23 23.68-44.55 15.88v-11c0-.82.7-1.27 1.8-1.18 5.5.47 6.2 0 6.4 1.18l.2 4.9c11.4 2.66 26.2 2.8 26.2-8.8 0-8.08-3-9.7-17-14.7-10.1-3.8-17.1-9-17.1-19.06 0-18.75 21.7-21.62 40-17.06v11.9c0 1.67-1.8 1.17-7.2.8-1.1 0-.9-.78-1.1-5.7a66.12 66.12 0 0 0-7.1-.46c-8.4 0-14 3.9-14 10.16.1 16.27 33.8 9.02 33.8 33.14zm55.53-51.1V171c0 .73-.6 1.1-1.5 1-4.2-.42-5.1.14-5.3-1l-.2-2.72H450v55.17c4.34.28 3.78-.8 3.36 6.17 0 1 .37.73-16.24.73-1.4 0-1-1.3-.72-6a.76.76 0 0 1 .72-.73l2.63-.18v-55.16h-12.8c-.28 4.34.8 3.78-6.17 3.36-1 0-.72.1-.72-11.7zm57.4 65.16c-.5 4 .1 5.26-1 5.26h-10.4l-15.4-27.22h-10v20.33c2.9.2 3.8-.12 3.6 1.63-.5 4 .1 5.26-1 5.26h-15.5c-.8 0-1.1-.54-1-1.45.6-6-.8-5.14 3.6-5.44v-56.6c-2.9-.2-3.8.12-3.7-1.63.4-4-.2-5.26 1-5.26 24 0 46.5-3.14 46.5 21.05 0 9.1-4.8 17-13.5 20.2l12.9 22.2c2.8.2 3.8-.1 3.6 1.6zM514.7 181c0-14.6-12.4-13.07-23.33-13.07v27.13c9.3 0 23.32 1.78 23.32-14.06zm81.2 44.1c-.42 3.7.14 5.26-.9 5.26h-15.9c-.72 0-1.08-.54-1-1.45.62-6-.8-5.1 3.55-5.4l-3.54-10h-28.7l-3.4 10c2.9.2 3.9-.1 3.7 1.7-.4 4 .2 5.3-1 5.3h-15.4c-.7 0-1.1-.5-1-1.4.6-6-.8-5.1 3.6-5.4l20.3-56.6c-2.8-.2-3.7.1-3.5-1.6.5-4-.1-5.2 1-5.2H568l24.32 63.5c2.83.2 3.77-.1 3.57 1.6zM575.2 205l-11.8-33.48h-.08L552.16 205zm71.42 14.25v11.07h-44c-.73 0-1.1-.54-1-1.45.58-6-.8-5.14 3.63-5.44v-56.6c-2.9-.2-3.82.12-3.63-1.63.43-4-.15-5.26 1-5.26h15.52c.73 0 1.1.54 1 1.45-.6 6 .83 5.1-3.63 5.4v55.1h24.3c.2-2.9-.1-3.8 1.7-3.7 4.5.2 5.3 0 5.3 1zm23 5.8c-.45 4 .16 5.27-1 5.27h-15.57c-.73 0-1.1-.54-1-1.45.6-6-.82-5.14 3.63-5.44v-56.6c-2.88-.2-3.82.12-3.63-1.63.44-4-.16-5.26 1-5.26h15.5c.74 0 1.1.54 1 1.45-.6 6 .83 5.1-3.62 5.4v56.6c2.9.2 3.83-.1 3.64 1.6zm69.5 0c-.4 3.83.12 5.27-.9 5.27H722.3c-.73 0-1.1-.54-1-1.45.6-6-.8-5.14 3.53-5.44l-3.54-10.07h-28.8l-3.4 10.07c2.9.2 3.8-.12 3.6 1.63-.5 4 .1 5.26-1 5.26h-15.3c-.8 0-1.1-.54-1-1.45.6-6-.8-5.13 3.5-5.44l20.3-56.62c-2.8-.1-3.8.2-3.6-1.6.4-4-.2-5.2 1-5.2H711l24.33 63.5c2.8.2 3.73-.1 3.54 1.7zM718.4 205l-11.8-33.48h-.1L695.34 205zM189.66 6.28H24.4v59.87c.3 18.43-4 91.58 82.63 142.75 86.66-51.18 82.33-124.32 82.64-142.75z"/><path fill="#21409a" d="M185.87 6.28H28.2v59.87c.3 18.43-3.84 91.58 78.83 142.75 82.67-51.18 78.54-124.32 78.84-142.75z"/><path fill="#ddb10a" d="M189.67 6.28H24.4V0h165.27zM35.3 130.38c10.5 25.74 31.13 54.54 71.7 78.52 40.6-24 61.23-52.78 71.72-78.5L107 64.05z"/><use width="71.35" height="43.11" transform="translate(110.41 21.17)" xlink:href="#a"/><path fill="#fff" fill-rule="evenodd" d="M111.24 155.85c5.1 2.55 13.22 5.76 16.44 1.1a3.9 3.9 0 0 0 .76-2.13c-3.37 1.3-9.1 0-12.55-.9a4.37 4.37 0 0 1-4.2 1c-.2.3-.3.6-.5.93zm6.93-26.78a6.94 6.94 0 0 1-3.17 3.6v1c7-3.05 22.58-11.36 22.58-19a5.56 5.56 0 0 0-2.05-4.5c-3.16 7.34-10.43 14.6-17.36 18.9zm-1.07 19.87a5.35 5.35 0 0 1-4.1 1.6c-.08.3-.17.58-.26.86 6.52 1.82 18 4.07 20.36-2.24a3.63 3.63 0 0 0 .22-1.6 13.67 13.67 0 0 1-1.77.67c-2.8 1-7.55 1.22-14.44.7zm1.7-10.14a6.3 6.3 0 0 1-4.13 2.55c0 .3-.07.6-.1.88 8.28-.28 24.08-2 24.15-10.28a4.56 4.56 0 0 0-.66-2.56c-3.5 4.8-13.4 7.9-19.25 9.4zm-8.8 19.15c-.22.37-.44.72-.67 1.06a42.75 42.75 0 0 0 9.58 3.9c-3 3.5-7.9 1.4-11.7-1.1-.3.3-.5.6-.8.8a22.7 22.7 0 0 0 6.5 3.2c-2.5 2-6.1.3-8.8-1.6-3.3 1.7-7 1.3-10.4-2-.1 0-.6.6-.6.6 3.9 4.3 9 3.8 10.8 2.7 3.4 2.4 8.1 4 10.6.7a6.26 6.26 0 0 0 6.3-2.9c1.9.1 4.2-.1 4.9-1.8-4.8 1.4-10.8-1.1-15.4-3.3z"/><path fill="#fff" fill-rule="evenodd" d="M119.3 133.66a7.2 7.2 0 0 1-4.3 3.4v1c7-1.56 21.72-5.9 23.33-12.83a4.88 4.88 0 0 0-.9-4.53c-3.92 5.2-12.08 10.38-18.14 12.96zm-.7 10.1A7 7 0 0 1 114 146c-.06.32-.12.5-.2.82 7.92.85 22.18 1.63 23.65-6.18a4.38 4.38 0 0 0-.2-2.56c-3.96 3.92-13.12 5.2-18.64 5.68zm-.22-21.76a7.38 7.38 0 0 1-3.7 6.1c0 .34.08.67.1 1 10.3-5.62 20-17.15 19.62-23.26-.2-2.68-1.6-4.9-3.37-5.65.43 6.4-8.15 16.9-12.65 21.8z"/><path fill="#fff" fill-rule="evenodd" d="M127.63 95.42c-.1 3.34-4.64 11.47-11.82 20.58.8 1.4.4 4.4-2 6.75l.3 1.26c12.3-11.9 18.7-25.6 13.6-28.5z"/><path d="M74 121.48c.64 6.67-1.9 10 .2 9.68a46.1 46.1 0 0 1 3.3-6.16 5 5 0 0 0-3.5-3.52z"/><path d="M139.87 128.05a8.26 8.26 0 0 0-.6-9.47c2-3.47.93-8.66-2.46-10.87.5-3.8-.8-8.2-4.8-9.7a13.1 13.1 0 0 0-4.5-7.3c-2.2 9.6-9.3 18.7-11.8 22.3-8 11.5-7.5 31.2-19.1 39.2 0-10.7 10.3-29.8 6.9-40.7-2.6-8.5-10.1-10.2-18-6.6-4.4 2-9.1 3.8-11.2 8.6a11.28 11.28 0 0 0-1 5.7c.1 1 1.3 1.2 1.8.2a3.26 3.26 0 0 0 .4-1.4 1 1 0 1 1 1.8.7c-.9 1.3-1.4 2.8 0 3.5 2.1.9 5 .2 7.4-5.1.8-1.5.7-3.1 1.9-4.4 2-2.3 7.7-3.8 10.2-.7 7.9 9.6-10.6 23.9-17 39.2-7.7 18.6 5.5 36.8 26.8 36.8 13.6 0 22-5.9 26.8-13a21.85 21.85 0 0 1-14.2-6.7 4.38 4.38 0 0 0 3-2.2c1.8-.2 4.8-.3 5.9-3.5a10.8 10.8 0 0 0 .7-2.83 5.17 5.17 0 0 0 2.5-4.6 8.22 8.22 0 0 0 5.1-7.9c2.6-1.3 5.4-5.8 3.5-10 2.2-2.33 2.1-6.14.4-8.74zm-6.47 17.44c-4.74 2.5-14.24 1.9-19.6 1.3.07-.3.14-.5.2-.8a7 7 0 0 0 4.6-2.3c5.53-.5 14.7-1.8 18.64-5.7.87 2.2-.1 5.5-3.84 7.4zm-4.65 7.3c-3 1-8.94.5-16-1.5l.26-.9a5.35 5.35 0 0 0 4.2-1.6c6.9.5 11.7.3 14.5-.7a13.67 13.67 0 0 0 1.8-.7c.2 1.6-1.2 4.4-4.6 5.3zm-8.18 10.3a6.2 6.2 0 0 1-6.3 2.9c-2.47 3.3-7.17 1.6-10.55-.7-1.45.9-6.6 1.8-10.72-2.7-.08-.1.5-.7.58-.6 3.4 3.3 7.15 3.7 10.42 2 2.68 1.8 6.24 3.6 8.82 1.6a22.7 22.7 0 0 1-6.5-3.2c.3-.3.57-.5.85-.8 3.87 2.4 8.7 4.5 11.77 1a42.75 42.75 0 0 1-9.58-3.9l.67-1.1c4.5 2.2 10.56 4.7 15.38 3.3-.6 1.8-2.9 2-4.8 1.9zm-9.33-7.3c.15-.3.3-.6.45-1a4.37 4.37 0 0 0 4.2-1c3.4.9 9.1 2.2 12.5.9-.2 2.6-3.1 8.2-17.2 1.1zm18-55.2c-.63 6.8-9.44 17.7-15.17 23.3l-.23-1.3c2.36-2.4 2.7-5.4 2-6.8 7.18-9.1 11.7-17.3 11.82-20.6 1.3.8 1.88 2.9 1.6 5.3zm1.76-.6c2.87 1.2 4.28 5.8 2.8 9.2-3.3 7.7-11.32 15.5-19 19.7 0-.4-.05-.7-.1-1a7.38 7.38 0 0 0 3.7-6.1c4.5-4.8 13.06-15.3 12.6-21.8zm5.65 28c-3.8 4.9-15.7 8.4-21.73 9.8v-1a7.2 7.2 0 0 0 4.3-3.4c6.06-2.6 14.22-7.8 18.1-13 1.9 2.2 1.24 5.4-.65 7.6zM115 133.6v-1a6.94 6.94 0 0 0 3.17-3.6c6.93-4.3 14.2-11.56 17.37-18.94a5.56 5.56 0 0 1 2.05 4.52c0 7.67-15.6 15.96-22.6 19.02zm-.45 8.6c0-.3.07-.58.1-.88a6.3 6.3 0 0 0 4.15-2.56c5.87-1.4 15.76-4.5 19.26-9.4a5.54 5.54 0 0 1 0 5.2c-2.8 6.07-16.78 7.4-23.5 7.62z"/><use width="71.35" height="43.11" transform="translate(32.33 21.17)" xlink:href="#a"/><path fill="#21409a" fill-rule="evenodd" d="M38.7 203.7c1-1.3 2.57-.27 3.75.87l-.47.66a.14.14 0 0 0 0 .2l.68.6c.13.12.26.13.35 0l1.2-1.56c-1.9-2.44-5-4.27-7-1.8-2.3 3.06 2.9 5.5 1.1 7.87-1.1 1.52-3.1 0-4.3-1.5l.5-.65a.15.15 0 0 0 0-.2l-.7-.6c-.1-.2-.2-.2-.3 0l-1.1 1.4c1.6 2.8 5.3 5.1 7.5 2.4 2.5-3.2-2.7-5.6-1-7.8zm11.42 16.44l-3.44-2 2-3.37 3.64 2.15.7-1.2-3.65-2.14 1.8-3.06 3.22 1.9c-.4.65-.3.44.4 1 .1.1.2.08.3 0l.9-1.58-6-3.56a.1.1 0 0 0-.2 0c-.7 1-.6.8 0 1.16L45 217.5c-.64-.3-.44-.2-1 .5-.1.1-.08.3 0 .3l6.27 3.7.92-1.6a.1.1 0 0 0 0-.1c-.9-.5-.8-.8-1.3-.1zm13.13 6.28l-3.67-1.58 1.55-3.6L65 222.9l.55-1.26-3.87-1.64 1.4-3.27 3.44 1.48c-.24.7-.2.5.6 1 .12.1.23.1.28 0l.73-1.7-6.45-2.8a.1.1 0 0 0-.16.1c-.54 1.1-.45.9.1 1.2l-3.7 8.6c-.68-.2-.5-.1-.9.6-.08.1-.06.3.05.3l6.68 2.9.73-1.7a.1.1 0 0 0-.06-.1c-.87-.4-.78-.7-1.17.1zM79.4 221a.1.1 0 0 0-.14.08c-.4 1.13-.33.93.26 1.13l-4.92 3 1.13-4c.7.2.5.2.82-.7.06-.1 0-.2-.1-.2l-2.46-.7a.1.1 0 0 0-.2.1c-.4 1.2-.4 1 .2 1.2l-2.6 9c-.7-.1-.5-.1-.8.7-.1.2 0 .3.1.3l2.4.7a.1.1 0 0 0 .1-.1c.4-1.1.3-.9-.3-1.1l.8-3 1.3-.8 2 6.1 1.5.5a.1.1 0 0 0 .1 0c.4-1.1.3-.9-.3-1.1l-2.1-6.2 4.7-2.8c.7.2.5.1.8-.7.02-.1 0-.2-.1-.3zm26.77 3.72a.1.1 0 0 0-.13.1c-.13 1.2-.1 1 .5 1l-2.47 8.64-1.68-9.66c0-.2-.1-.27-.3-.3-2-.2-1.2-1.13-4.3 9.64l-1.5-8.84c.7 0 .5 0 .6-.87 0-.15 0-.24-.2-.25l-2.5-.13a.1.1 0 0 0-.1.1c-.2 1.2-.1 1 .5 1l1.9 10.3c0 .2.1.3.2.3 2.3.2 1.4 1.13 4.4-8.84l1.5 8.9c0 .2.1.3.2.3 2.3.2 1.3 1.4 4.9-10.2.7 0 .5 0 .6-.8 0-.1 0-.2-.1-.2zm11.4 9.93l-.8-9.33c.18 0 .55 0 .54-.2v-.75c0-.15 0-.23-.1-.23l-2.5.22a.1.1 0 0 0-.1.13c0 1.2 0 1 .7 1l.8 9.3c-.7.1-.5.1-.5.9 0 .1.1.2.2.2l2.6-.2a.1.1 0 0 0 .1-.2c0-1.3 0-1.1-.6-1.1zm8.1-8.65c-.3-1.6 1.5-2.1 3.13-2.24l.18.8a.14.14 0 0 0 .17.1l.9-.12c.17 0 .26-.1.23-.25l-.37-2c-3-.2-6.5 1-6 4 .8 3.8 6 1.4 6.7 4.4.4 1.9-2 2.3-4 2.2l-.2-.8a.14.14 0 0 0-.1-.1l-.9.1c-.2 0-.2.1-.2.2l.4 1.7c3.2.7 7.4-.6 6.7-4-.6-3.9-5.9-1.7-6.4-4.3zm21.5-3c-2-6-5.85-4.1-10.65-2.48a.1.1 0 0 0-.07.15c.06.23.18 1 .4.9l.45-.1 3 8.86c-.67.28-.48.17-.28 1 0 .15.12.2.23.17 4.44-1.5 9-2.38 6.93-8.5zm-5.35 6.6l-2.86-8.5c3.3-1.1 5.16-1.56 6.5 2.45 1.6 4.74-1.72 5.37-3.65 6.02zm19.43-13.1c-1.57-3.14-4-4.6-6.82-3.2-3.27 1.65-2.84 4.9-1.57 7.4 1.76 3.5 4.24 4.48 6.84 3.17s3.3-3.87 1.54-7.4zm-2.18 6.1c-2.2 1.1-3.75-1-4.63-2.72s-1.6-4.22.6-5.32 3.7.9 4.6 2.7c1.25 2.45 1.24 4.4-.58 5.32zm19.86-12.2l-5.68-7.45c.14-.12.46-.3.37-.44l-.4-.6c-.07-.1-.17-.1-.27-.1l-1.53 1.1a.26.26 0 0 0-.12.3l1.9 8.7c-.15-.1-7.75-4.7-7.88-4.6l-1.47 1a.1.1 0 0 0 0 .2c.63 1 .52.9 1 .5l5.15 7.9c-.57.5-.4.3 0 1.1.07.1.18.2.27.1l2-1.4a.1.1 0 0 0 0-.1c-.63-1-.5-.8-1-.5l-4-6c7.3 4.4 6.38 4.3 7.38 3.6a.58.58 0 0 0 .13-.6l-1.55-7.2 4.3 5.8c-.57.5-.4.4 0 1.1.06.1.17.2.26.1l2-1.4a.1.1 0 0 0 0-.2c-.5-1-.4-.8-.9-.5zm-49.6-172.83h-4.65v-7.43h4.55a2.9 2.9 0 0 1 0 1.34h-3v1.6h2.52a2.8 2.8 0 0 1 0 1.33h-2.52v1.9h3.08a2.93 2.93 0 0 1 .1 1.4zm6.7 0a6.2 6.2 0 0 1-1.76 0l-1.5-2.67h-.66v2.67a5.52 5.52 0 0 1-1.5 0v-7.43c2.9-.2 5-.3 5 2.32a2.4 2.4 0 0 1-1.3 2.16zm-3.92-6.17v2.2c1 0 1.9.06 1.9-1.14s-.7-1.13-1.8-1.07zm9.4 6.18h-4.6v-7.44h4.6a2.9 2.9 0 0 1 0 1.34h-3v1.6h2.5a2.8 2.8 0 0 1 0 1.33h-2.5v1.9h3.1a2.93 2.93 0 0 1 .1 1.4zm-15.2 7.6v2.65a5.62 5.62 0 0 1-1.5 0V40.4c2.6-.13 5.2-.37 5.2 2.27 0 2.28-1.7 2.5-3.5 2.5zm0-3.52v2.2c1.1 0 2 .1 2-1.13s-.9-1.13-2-1.08zm9.2 6.17h-4.6V40.4h4.6a2.9 2.9 0 0 1 0 1.33h-3v1.6h2.5a2.8 2.8 0 0 1 0 1.33h-2.5v1.83h3.1a2.9 2.9 0 0 1 0 1.3zm6.6 0a6.2 6.2 0 0 1-1.7 0l-1.5-2.67h-.6v2.67a5.52 5.52 0 0 1-1.6 0V40.4c2.9-.2 5-.3 5 2.3a2.4 2.4 0 0 1-1.3 2.17zm-3.9-6.17v2.2c1 0 1.9.06 1.9-1.14s-.7-1.14-1.8-1.08zm21.7-4.07a5.83 5.83 0 0 1-1.6 0l-.5-1.6H155l-.52 1.5a5.7 5.7 0 0 1-1.6 0l2.6-7.5a5.4 5.4 0 0 1 1.53 0zm-2.6-2.9a28.2 28.2 0 0 1-.8-3c0 .5-.7 2.5-.8 3zm8.8 2.8a6.2 6.2 0 0 1-1.7 0l-1.5-2.7h-.7v2.6a5.52 5.52 0 0 1-1.5 0V30c2.9-.2 5-.3 5 2.33a2.4 2.4 0 0 1-1.3 2.15zm-4-6.2v2.2c1 0 1.9 0 1.9-1.2s-.7-1.1-1.8-1.1zm-5.5 10.3h-2v6.1a5.67 5.67 0 0 1-1.5 0v-6.1h-2a2.9 2.9 0 0 1 0-1.4h5.5a3.07 3.07 0 0 1 .1 1.3zm5.6 6.1h-4.6v-7.4h4.5a2.9 2.9 0 0 1 0 1.3h-3v1.6h2.6a2.8 2.8 0 0 1 0 1.3H159v1.8h3.1a2.9 2.9 0 0 1 0 1.3zm1-.4a2.9 2.9 0 0 1 .1-1.4c1.2.4 3.4.8 3.4-.4 0-.6-.3-.8-1.4-1.1-3.8-1.2-2-5.6 2.5-4.1a3.62 3.62 0 0 1 0 1.3c-1-.3-3-.5-3 .5 0 .5.4.7 1.4 1 4.2 1.3 1.7 6.2-2.8 4.1zm-113-11.6c.3-1.7 1.6-3.9 1.6-5.6 2.4-.4 2 0-.9 7.4a4.65 4.65 0 0 1-1.4 0c-2.9-7.8-2.9-7.5-1.6-7.5s.4 0 1.2 2a30.65 30.65 0 0 1 1.2 3.7zm5.7 1.8a5.62 5.62 0 0 1-1.5 0v-7.4a5.66 5.66 0 0 1 1.6 0zm6.5-6.1h-2v6.1a5.67 5.67 0 0 1-1.5 0v-6.1h-2a2.87 2.87 0 0 1 0-1.4h5.5a3.08 3.08 0 0 1 .1 1.3zm-8.9 16.4a5.83 5.83 0 0 1-1.6 0l-.5-1.5h-2.7l-.5 1.5a5.7 5.7 0 0 1-1.6 0l2.6-7.5a5.4 5.4 0 0 1 1.6 0zM50.8 45a28.24 28.24 0 0 1-.86-3c-.08.48-.7 2.5-.84 3zm11 2.82a5.15 5.15 0 0 1-1.5 0l-.13-4.47-1.63 3.76a2.64 2.64 0 0 1-1.1 0l-1.64-3.7-.14 4.5a4.78 4.78 0 0 1-1.45 0l.4-7.4a3.8 3.8 0 0 1 1.3 0l2.2 5 2.2-5a3.78 3.78 0 0 1 1.3 0zm16.1-10.25h-4.65v-7.43h4.55a2.9 2.9 0 0 1 0 1.34h-3v1.6h2.52a2.8 2.8 0 0 1 0 1.33h-2.5v1.9h3.08a2.9 2.9 0 0 1 0 1.4zm3.1-3.92c-2.62-3.65-2.36-3.56-1.3-3.56s.4-.2 1.4 1.3l.78 1.1a6.22 6.22 0 0 0 1.35-2.4 5.36 5.36 0 0 1 1.53 0c-.13 1-.63 1.6-2 3.5 1.54 2.1 2.1 2.7 2.18 4a5.17 5.17 0 0 1-.78 0c-1.33 0-.37-.1-1.24-1.4l-1-1.6c-.92 1.3-1.46 1.8-1.46 2.8a5.5 5.5 0 0 1-1.56 0c.04-1.3.44-1.6 2.1-3.9zm7.8-2.24c-2.75 0-2.86 5 0 5 1.56 0 1.78-.7 1.78.5a3.2 3.2 0 0 1 0 .5c-1.58.8-5.43.9-5.43-3.3 0-3.7 3.2-4.5 5.45-3.5a2.3 2.3 0 0 1 0 .5c.02 1.4 0 .5-1.77.5zM75.72 48c-2 0-3.1-1.4-3.1-3.83s1.07-3.82 3.1-3.82 3.1 1.4 3.1 3.84-1.07 3.8-3.1 3.8zm0-6.3c-.95 0-1.5.73-1.5 2.48s.55 2.5 1.5 2.5 1.48-.74 1.48-2.5-.54-2.47-1.48-2.47zm8.55 6.2h-4.55v-7.5a5.63 5.63 0 0 1 1.57 0v6.08h3a2.9 2.9 0 0 1-.1 1.34zm3.42.1c-3.5 0-2.9-2.38-2.9-7.55a5.65 5.65 0 0 1 1.5 0c0 5.2-.3 6.3 1.2 6.3s1.3-1.2 1.3-6.3a5.5 5.5 0 0 1 1.5 0c0 5.04.6 7.55-2.9 7.55z"/></svg>